<svg id="Layer_1" data-name="Layer 1" xmlns="http://www.w3.org/2000/svg" viewBox="0 0 31.88 23.99"><defs><style>.cls-1{fill:#00805e;}.cls-2{fill:#ff985e;}</style></defs><path class="cls-1" d="M2.56,22.22A11,11,0,0,1,.09,14c.1-.73.87-6.32,6-8a10.67,10.67,0,0,1,7.56.54l.09,0c1,.22,1.79-.45,2.91-1a9.75,9.75,0,0,1,1.7-.61,7.56,7.56,0,0,1,4.2.21A6.52,6.52,0,0,1,25,6.64a11.38,11.38,0,0,1,1.26,1.55c.05.08.24.38.54.77a4.85,4.85,0,0,0,.31.4,20.92,20.92,0,0,0,2.42,2.21,7.14,7.14,0,0,1,2,2.65,5.29,5.29,0,0,1,.14,3.45c-.53,1.63-1.78,2.22-3.2,3.45A9.52,9.52,0,0,0,27,22.74c-1.49,2.14-1.55,2.86-2.49,3.87a6.61,6.61,0,0,1-6,2c-2.47-.63-3.59-3.26-6.32-3l-.26,0a10.1,10.1,0,0,1-6.79-1.12A9.52,9.52,0,0,1,2.56,22.22Z" transform="translate(0 -4.73)"/><path class="cls-2" d="M10.35,14a1.22,1.22,0,0,1,.22.4,1.4,1.4,0,0,1,.07.37,1,1,0,0,1-.16.52,1.22,1.22,0,0,1-.5.41,2.05,2.05,0,0,1-.89.16,2.41,2.41,0,0,1-1.17-.26,1.75,1.75,0,0,1-.7-.75A2.56,2.56,0,0,1,7,13.73a2.53,2.53,0,0,1,.29-1.22,2.11,2.11,0,0,1,.82-.83,2.51,2.51,0,0,1,1.25-.3,1.62,1.62,0,0,1,.9.21.59.59,0,0,1,.32.48.35.35,0,0,1-.11.27.51.51,0,0,1-.32.09.84.84,0,0,1-.27,0l-.3-.08a1.4,1.4,0,0,0-.37,0,1.71,1.71,0,0,0-.72.14,1.15,1.15,0,0,0-.52.46,1.7,1.7,0,0,0-.19.87,1.55,1.55,0,0,0,.17.76,1.08,1.08,0,0,0,.5.42,1.9,1.9,0,0,0,.73.14A1.29,1.29,0,0,0,9.61,15a.43.43,0,0,0,.23-.18.71.71,0,0,0,.07-.31,1.29,1.29,0,0,0,0-.25c0-.1-.05-.2-.08-.3Zm-.45.12-.33,0h-.3a1.57,1.57,0,0,1-.54-.06.23.23,0,0,1-.14-.22.34.34,0,0,1,.07-.19.78.78,0,0,1,.2-.14,2.15,2.15,0,0,1,.47-.13,4.23,4.23,0,0,1,.63-.05,2.25,2.25,0,0,1,.65.07.26.26,0,0,1,.23.26.32.32,0,0,1-.12.25.72.72,0,0,1-.4.14Z" transform="translate(0 -4.73)"/><path class="cls-2" d="M11.31,13.06a2.35,2.35,0,0,1,.11-.83c.07-.17.18-.26.31-.26a.29.29,0,0,1,.25.13.93.93,0,0,1,.13.32,1.64,1.64,0,0,1,0,.38h0a1.42,1.42,0,0,1,.32-.56A.64.64,0,0,1,13,12a.57.57,0,0,1,.53.29,1.45,1.45,0,0,1,.17.72,1.69,1.69,0,0,1-.14.81.38.38,0,0,1-.35.23.25.25,0,0,1-.24-.13.88.88,0,0,1-.05-.47,1.33,1.33,0,0,0,0-.5.23.23,0,0,0-.22-.13.32.32,0,0,0-.28.22,1.08,1.08,0,0,0-.11.54,2.23,2.23,0,0,0,0,.32c0,.12,0,.26.06.41s0,.3.07.45a3.17,3.17,0,0,1,0,.41.86.86,0,0,1-.1.48.33.33,0,0,1-.29.14.42.42,0,0,1-.33-.13,1.09,1.09,0,0,1-.17-.44c0-.19-.07-.41-.1-.66s-.06-.51-.08-.78S11.31,13.28,11.31,13.06Z" transform="translate(0 -4.73)"/><path class="cls-2" d="M15.87,15.83a2.46,2.46,0,0,1-1.07-.2,1.21,1.21,0,0,1-.57-.57,2.05,2.05,0,0,1-.17-.89,2.41,2.41,0,0,1,.24-1.12,1.67,1.67,0,0,1,.68-.71,1.85,1.85,0,0,1,1-.25,1.3,1.3,0,0,1,.95.3,1.06,1.06,0,0,1,.3.78,1.09,1.09,0,0,1-.2.67,1.3,1.3,0,0,1-.56.43,2.07,2.07,0,0,1-.82.15,1.68,1.68,0,0,1-.5-.07,1.5,1.5,0,0,1-.43-.18l.14-.26a2.71,2.71,0,0,0,0,.29.66.66,0,0,0,.26.6,1.26,1.26,0,0,0,.75.19,2.37,2.37,0,0,0,.61-.07,3.54,3.54,0,0,0,.39-.13.85.85,0,0,1,.31-.06.28.28,0,0,1,.15,0,.37.37,0,0,1,.12.13.45.45,0,0,1-.14.55,1.38,1.38,0,0,1-.53.27A2.79,2.79,0,0,1,15.87,15.83Zm-.35-2a1.18,1.18,0,0,0,.69-.18.54.54,0,0,0,.26-.45.5.5,0,0,0-.14-.35.65.65,0,0,0-.45-.13,1.19,1.19,0,0,0-.51.1,1,1,0,0,0-.35.28.62.62,0,0,0-.13.37.32.32,0,0,0,.17.27A1,1,0,0,0,15.52,13.86Z" transform="translate(0 -4.73)"/><path class="cls-2" d="M19.67,15.83a2.46,2.46,0,0,1-1.07-.2,1.21,1.21,0,0,1-.57-.57,2,2,0,0,1-.18-.89,2.41,2.41,0,0,1,.25-1.12,1.7,1.7,0,0,1,.67-.71,1.91,1.91,0,0,1,1-.25,1.3,1.3,0,0,1,.95.3,1.06,1.06,0,0,1,.3.78,1.15,1.15,0,0,1-.2.67,1.3,1.3,0,0,1-.56.43,2.07,2.07,0,0,1-.82.15,1.68,1.68,0,0,1-.5-.07,1.5,1.5,0,0,1-.43-.18l.14-.26a2.64,2.64,0,0,0,0,.29.67.67,0,0,0,.27.6,1.26,1.26,0,0,0,.75.19,2.37,2.37,0,0,0,.61-.07c.15,0,.28-.09.39-.13a.8.8,0,0,1,.3-.06.29.29,0,0,1,.16,0,.47.47,0,0,1,.11.13.43.43,0,0,1-.13.55,1.36,1.36,0,0,1-.54.27A2.68,2.68,0,0,1,19.67,15.83Zm-.35-2a1.2,1.2,0,0,0,.69-.18.54.54,0,0,0,.26-.45.47.47,0,0,0-.15-.35.61.61,0,0,0-.44-.13,1.19,1.19,0,0,0-.51.1,1,1,0,0,0-.35.28.56.56,0,0,0-.13.37.32.32,0,0,0,.17.27A1,1,0,0,0,19.32,13.86Z" transform="translate(0 -4.73)"/><path class="cls-2" d="M22.39,12a.27.27,0,0,1,.27.16,1.3,1.3,0,0,1,.07.46s0,.1,0,.16l0,.14v-.12a1.26,1.26,0,0,1,.44-.61,1.12,1.12,0,0,1,.64-.22,1,1,0,0,1,.63.21,1.3,1.3,0,0,1,.37.59,3,3,0,0,1,.13.9q0,.33,0,.63c0,.21,0,.4-.07.57s-.07.31-.1.42a.68.68,0,0,1-.19.3.39.39,0,0,1-.27.1.28.28,0,0,1-.24-.11.5.5,0,0,1-.09-.31c0-.14,0-.3,0-.5l.06-.59c0-.21,0-.39,0-.56,0-.56-.19-.84-.56-.84a.59.59,0,0,0-.49.26,1.61,1.61,0,0,0-.27.75c0,.11,0,.24,0,.4s0,.32,0,.48,0,.29,0,.4a1.06,1.06,0,0,1-.13.52.38.38,0,0,1-.31.16.37.37,0,0,1-.34-.21,1.66,1.66,0,0,1-.11-.7c0-.17,0-.36,0-.57l0-.63c0-.21,0-.4.06-.58a3.06,3.06,0,0,1,.17-.77C22.13,12.13,22.24,12,22.39,12Z" transform="translate(0 -4.73)"/><path class="cls-2" d="M7.46,21A2.86,2.86,0,0,1,6.87,21a.52.52,0,0,1-.29-.14.27.27,0,0,1-.08-.19.32.32,0,0,1,.2-.29,2,2,0,0,1,.74-.14l-.09.11a4.33,4.33,0,0,1-.1-.71,8,8,0,0,1,0-.85c0-.3,0-.58,0-.84a5.15,5.15,0,0,1,.1-.69l.53,0a1.87,1.87,0,0,1-.33.1,2.85,2.85,0,0,1-.41,0,1.43,1.43,0,0,1-.58-.09A.25.25,0,0,1,6.4,17a.47.47,0,0,1,.32-.42,2.76,2.76,0,0,1,1-.14,3,3,0,0,1,1.34.26,1.91,1.91,0,0,1,.83.73,2,2,0,0,1,.28,1.09,2.37,2.37,0,0,1-.74,1.79,2.55,2.55,0,0,1-.86.51A3,3,0,0,1,7.46,21Zm.85-.93a.79.79,0,0,0,.44-.17,1.23,1.23,0,0,0,.39-.49,1.71,1.71,0,0,0,.17-.79,1.92,1.92,0,0,0-.1-.62A1.3,1.3,0,0,0,9,17.61a1,1,0,0,0-.33-.27.88.88,0,0,0-.33-.08.22.22,0,0,0-.2.15,1.87,1.87,0,0,0-.1.47c0,.21,0,.46,0,.77A5.92,5.92,0,0,0,8,19.74C8.08,20,8.18,20.11,8.31,20.11Z" transform="translate(0 -4.73)"/><path class="cls-2" d="M12.3,20.92a1.55,1.55,0,0,1-.84-.22,1.38,1.38,0,0,1-.56-.61,2.12,2.12,0,0,1-.19-.95,2.26,2.26,0,0,1,.2-1,1.6,1.6,0,0,1,.56-.67,1.49,1.49,0,0,1,.85-.24,1.64,1.64,0,0,1,1.49.88,2.37,2.37,0,0,1,0,1.95,1.58,1.58,0,0,1-.6.63A1.78,1.78,0,0,1,12.3,20.92Zm.08-.82a.71.71,0,0,0,.6-.3,1.53,1.53,0,0,0,0-1.58.71.71,0,0,0-.6-.3.73.73,0,0,0-.61.3,1.53,1.53,0,0,0,0,1.58A.73.73,0,0,0,12.38,20.1Z" transform="translate(0 -4.73)"/><path class="cls-2" d="M17.34,20.86a.28.28,0,0,1-.25-.11.59.59,0,0,1-.12-.29,2.25,2.25,0,0,1,0-.38l0,0a1.07,1.07,0,0,1-.23.45,1.25,1.25,0,0,1-.41.28,1.06,1.06,0,0,1-.46.1,1.19,1.19,0,0,1-.56-.14,1,1,0,0,1-.39-.45,3.93,3.93,0,0,1-.22-.8,6.63,6.63,0,0,1-.07-1,4,4,0,0,1,0-.51,1.66,1.66,0,0,1,.08-.39.48.48,0,0,1,.14-.23.41.41,0,0,1,.25-.08.31.31,0,0,1,.27.14.78.78,0,0,1,.13.38c0,.13,0,.29,0,.49l0,.58c0,.2,0,.36,0,.49a1,1,0,0,0,.18.54.5.5,0,0,0,.37.17.56.56,0,0,0,.49-.24,1.2,1.2,0,0,0,.17-.68,4.57,4.57,0,0,0,0-.49c0-.18,0-.36-.05-.53s0-.32,0-.43a.71.71,0,0,1,.09-.41.34.34,0,0,1,.27-.12.33.33,0,0,1,.24.08.49.49,0,0,1,.16.21,2,2,0,0,1,.15.5,6.22,6.22,0,0,1,.09.71,7.51,7.51,0,0,1,0,.84,4.23,4.23,0,0,1-.09,1C17.6,20.75,17.49,20.86,17.34,20.86Z" transform="translate(0 -4.73)"/><path class="cls-2" d="M19.64,20.8a1.15,1.15,0,0,1-.93-.43A2.15,2.15,0,0,1,18.36,19a2.29,2.29,0,0,1,.34-1.4,1.1,1.1,0,0,1,.91-.44,1,1,0,0,1,.58.17,1.47,1.47,0,0,1,.44.48l-.05.08a.84.84,0,0,1,0-.18,1.15,1.15,0,0,1,0-.14.7.7,0,0,1,.09-.39.27.27,0,0,1,.25-.13.37.37,0,0,1,.31.15,1.37,1.37,0,0,1,.17.45,5.21,5.21,0,0,1,.13.75,7.11,7.11,0,0,1,.06.92,8.5,8.5,0,0,1-.05,1,2.17,2.17,0,0,1-.14.65,1.36,1.36,0,0,1-.25.46,1.69,1.69,0,0,1-.66.47,2.35,2.35,0,0,1-.94.17,2,2,0,0,1-.61-.07.74.74,0,0,1-.33-.19.35.35,0,0,1-.1-.26.41.41,0,0,1,.08-.25.36.36,0,0,1,.26-.1,1.63,1.63,0,0,1,.35.05,2.28,2.28,0,0,0,.48,0,1,1,0,0,0,.83-.28,1.14,1.14,0,0,0,.24-.78c0-.09,0-.2,0-.33l.08,0a1.37,1.37,0,0,1-.45.62A1.07,1.07,0,0,1,19.64,20.8Zm.23-.74a.8.8,0,0,0,.38-.1.76.76,0,0,0,.32-.34A1.28,1.28,0,0,0,20.7,19a1.27,1.27,0,0,0-.23-.78.71.71,0,0,0-.62-.3.57.57,0,0,0-.52.26,2.08,2.08,0,0,0,0,1.6A.56.56,0,0,0,19.87,20.06Z" transform="translate(0 -4.73)"/><path class="cls-2" d="M22.89,16.12a.27.27,0,0,1,.27.15,1.08,1.08,0,0,1,.08.46c0,.17,0,.39,0,.65s-.05.51-.08.75h0a1.77,1.77,0,0,1,.51-.6,1.13,1.13,0,0,1,.67-.23,1,1,0,0,1,.55.15,1.06,1.06,0,0,1,.39.46,2.4,2.4,0,0,1,.2.67,3.93,3.93,0,0,1,.07.74,4.16,4.16,0,0,1-.08.89,1.21,1.21,0,0,1-.2.48.42.42,0,0,1-.32.15c-.25,0-.38-.21-.38-.62a4.4,4.4,0,0,1,0-.62c0-.22,0-.41,0-.59a1.35,1.35,0,0,0-.14-.68.46.46,0,0,0-.41-.22.65.65,0,0,0-.54.29,1.48,1.48,0,0,0-.2.82,3.13,3.13,0,0,0,0,.59,4.4,4.4,0,0,1,.05.59.59.59,0,0,1-.12.42A.34.34,0,0,1,23,21a.47.47,0,0,1-.24-.05.37.37,0,0,1-.16-.2,1.77,1.77,0,0,1-.12-.46c0-.16-.05-.34-.07-.55s-.05-.43-.06-.66,0-.45,0-.67,0-.42,0-.6a3.73,3.73,0,0,1,.16-1.25C22.54,16.25,22.7,16.12,22.89,16.12Z" transform="translate(0 -4.73)"/></svg>